<svg width="106" height="106" viewBox="0 0 106 106" fill="none" xmlns="http://www.w3.org/2000/svg">
<circle cx="52.8676" cy="53.1065" r="42.325" stroke="white" stroke-width="20"/>
<path fill-rule="evenodd" clip-rule="evenodd" d="M52.8676 20.7815C35.34 20.7815 21.0706 34.7318 20.5569 52.135C20.5474 51.8124 20.5426 51.4885 20.5426 51.1635C20.5426 33.3109 35.015 18.8385 52.8676 18.8385C70.7202 18.8385 85.1926 33.3109 85.1926 51.1635C85.1926 51.4885 85.1878 51.8124 85.1783 52.135C84.6646 34.7318 70.3952 20.7815 52.8676 20.7815Z" fill="#B5A9A9"/>
<path d="M52.8676 105.432C81.7659 105.432 105.193 82.0048 105.193 53.1065C105.193 52.782 105.19 52.4582 105.184 52.135C104.666 80.585 81.4414 103.489 52.8676 103.489C24.2938 103.489 1.06946 80.585 0.55144 52.135C0.545557 52.4582 0.542603 52.782 0.542603 53.1065C0.542603 82.0048 23.9693 105.432 52.8676 105.432Z" fill="#B5A9A9"/>
</svg>
