<svg width="106" height="105" viewBox="0 0 106 105" fill="none" xmlns="http://www.w3.org/2000/svg">
<path d="M38.7853 52.6732L2.22771 15.9642C1.45162 15.1849 1.4504 13.9252 2.22498 13.1444L13.5014 1.77739C14.283 0.989592 15.5564 0.98867 16.3391 1.77534L53.15 38.7744L89.9001 1.77449C90.6813 0.987961 91.9532 0.986909 92.7358 1.77215L104.06 13.1357C104.841 13.9194 104.837 15.1882 104.052 15.9674L67.0488 52.6732L104.055 89.3934C104.839 90.1713 104.844 91.4375 104.067 92.2216L92.81 103.569C92.0285 104.357 90.7552 104.358 89.9725 103.571L53.15 66.572L16.4104 103.573C15.6297 104.359 14.3584 104.361 13.5757 103.576L2.23342 92.213C1.45483 91.4329 1.45402 90.17 2.23161 89.389L38.7853 52.6732Z" fill="white"/>
<path d="M2.22771 15.9643L38.7105 52.5981V52.5981C38.7539 52.6416 38.8217 52.6477 38.8691 52.6086C39.1395 52.3857 39.9223 51.6127 39.059 50.7206C38.8104 50.4637 1.93711 13.5111 1.93711 13.5111C1.46702 14.2802 1.56408 15.2979 2.22771 15.9643Z" fill="#B5A9A9"/>
<path d="M104.067 92.2216L104.191 92.0696C104.667 91.4898 104.779 90.6926 104.48 90.0045L104.465 89.9687L104.119 90.9724C104.022 91.2556 103.989 91.5571 104.024 91.8546L104.067 92.2216Z" fill="#B5A9A9"/>
<path d="M92.81 103.569L104.067 92.2216L104.024 91.8546C103.989 91.5571 104.022 91.2556 104.119 90.9724L104.465 89.9687L92.8055 101.606C92.0246 102.386 90.7602 102.386 89.9795 101.606L54.9692 66.6522C54.9193 66.6024 54.8672 66.5553 54.8088 66.5157C54.591 66.3683 53.9726 66.0076 53.1345 66.0076C52.2648 66.0076 51.6616 66.396 51.4777 66.5315C51.4373 66.5612 51.4009 66.5952 51.3655 66.6307L16.4138 101.597C15.6309 102.381 14.3608 102.379 13.5804 101.593L1.90465 89.84L1.87607 89.8907C1.68182 90.2537 1.35203 91.2435 2.23342 92.213L13.5757 103.576C14.3584 104.361 15.6297 104.359 16.4104 103.573L51.7173 68.0051C52.4987 67.2179 53.7713 67.2169 54.5539 68.0028L89.9725 103.571C90.7552 104.358 92.0285 104.357 92.81 103.569Z" fill="#B5A9A9"/>
<path d="M104 16.0195C104.002 16.0174 104.001 16.0183 104.003 16.0162L104.078 15.9411C104.588 15.4308 104.794 14.6816 104.567 13.9968C104.478 13.729 104.4 13.526 104.372 13.553C104.297 13.6266 68.0084 49.595 66.8895 50.7116C65.8524 51.7487 67.0482 52.6697 67.0482 52.6697C67.0682 52.6499 67.0794 52.6388 67.0994 52.6189C81.5073 38.3281 103.93 16.0882 104 16.0195Z" fill="#B5A9A9"/>
</svg>
